<svg width="64" height="64" viewBox="0 0 64 64" fill="none" xmlns="http://www.w3.org/2000/svg">
  <!-- Background -->
  <rect width="64" height="64" rx="12" fill="url(#grad)"/>
  
  <defs>
    <linearGradient id="grad" x1="0" y1="0" x2="64" y2="64">
      <stop offset="0%" style="stop-color:#06b6d4"/>
      <stop offset="50%" style="stop-color:#3b82f6"/>
      <stop offset="100%" style="stop-color:#8b5cf6"/>
    </linearGradient>
  </defs>
  
  <!-- Chain Link -->
  <path d="M20 24 L20 28 C20 32 18 34 14 34 L12 34 C8 34 6 32 6 28 L6 24 C6 20 8 18 12 18 L14 18 C18 18 20 20 20 24 Z" 
        fill="none" stroke="white" stroke-width="3" stroke-linecap="round"/>
  
  <path d="M44 36 L44 40 C44 44 46 46 50 46 L52 46 C56 46 58 44 58 40 L58 36 C58 32 56 30 52 30 L50 30 C46 30 44 32 44 36 Z" 
        fill="none" stroke="white" stroke-width="3" stroke-linecap="round"/>
  
  <path d="M20 26 L44 38" 
        fill="none" stroke="white" stroke-width="3" stroke-linecap="round"/>
  
  <!-- Shield -->
  <path d="M32 10 L42 14 L42 28 C42 34 38 38 32 42 C26 38 22 34 22 28 L22 14 Z" 
        fill="white" opacity="0.9"/>
  
  <!-- Checkmark -->
  <path d="M28 24 L31 27 L37 21" 
        fill="none" stroke="#06b6d4" stroke-width="2.5" stroke-linecap="round" stroke-linejoin="round"/>
</svg>
