<svg width="512" height="512" viewBox="0 0 512 512" fill="none" xmlns="http://www.w3.org/2000/svg">
  <!-- Background Circle -->
  <circle cx="256" cy="256" r="256" fill="url(#gradient1)"/>
  
  <!-- Gradient Definitions -->
  <defs>
    <linearGradient id="gradient1" x1="0" y1="0" x2="512" y2="512">
      <stop offset="0%" style="stop-color:#06b6d4;stop-opacity:1" />
      <stop offset="50%" style="stop-color:#3b82f6;stop-opacity:1" />
      <stop offset="100%" style="stop-color:#8b5cf6;stop-opacity:1" />
    </linearGradient>
    <linearGradient id="gradient2" x1="0" y1="0" x2="512" y2="512">
      <stop offset="0%" style="stop-color:#ffffff;stop-opacity:1" />
      <stop offset="100%" style="stop-color:#e0e7ff;stop-opacity:1" />
    </linearGradient>
  </defs>
  
  <!-- Chain Link Icon (Left) -->
  <path d="M180 200 L180 240 C180 260 165 275 145 275 L125 275 C105 275 90 260 90 240 L90 200 C90 180 105 165 125 165 L145 165 C165 165 180 180 180 200 Z" 
        fill="none" stroke="url(#gradient2)" stroke-width="20" stroke-linecap="round"/>
  
  <!-- Chain Link Icon (Right) -->
  <path d="M332 272 L332 312 C332 332 347 347 367 347 L387 347 C407 347 422 332 422 312 L422 272 C422 252 407 237 387 237 L367 237 C347 237 332 252 332 272 Z" 
        fill="none" stroke="url(#gradient2)" stroke-width="20" stroke-linecap="round"/>
  
  <!-- Connecting Chain -->
  <path d="M180 220 L332 292" 
        fill="none" stroke="url(#gradient2)" stroke-width="20" stroke-linecap="round"/>
  
  <!-- Shield/Guard Icon -->
  <path d="M256 120 L320 150 L320 240 C320 290 290 330 256 360 C222 330 192 290 192 240 L192 150 Z" 
        fill="url(#gradient2)" opacity="0.9"/>
  
  <!-- AI Circuit Pattern -->
  <circle cx="256" cy="200" r="8" fill="#06b6d4"/>
  <circle cx="240" cy="220" r="6" fill="#3b82f6"/>
  <circle cx="272" cy="220" r="6" fill="#8b5cf6"/>
  <line x1="256" y1="200" x2="240" y2="220" stroke="#06b6d4" stroke-width="2"/>
  <line x1="256" y1="200" x2="272" y2="220" stroke="#8b5cf6" stroke-width="2"/>
  
  <!-- Checkmark -->
  <path d="M235 210 L250 225 L280 195" 
        fill="none" stroke="white" stroke-width="8" stroke-linecap="round" stroke-linejoin="round"/>
</svg>
